# xmcd
#
# Track frame offsets:
#	150
#	12445
#	23205
#	40105
#	51657
#	64510
#	76517
#	93332
#	107430
#	117282
#	135212
#	148762
#	158942
#	167480
#	177470
#	186192
#
# Disc length: 2662 seconds
#
# Revision: 0
# Processed by: cddbd v1.5.1PL2 Copyright (c) Steve Scherf et al.
# Submitted via: dBpowerAMP V4.0
#
DISCID=c90a6410
DTITLE=Various Artist - Sixteen Bluegrass Gospel Greats
DYEAR=2006
DGENRE=Bluegrass
TTITLE0=Sunday Morning Singin'
TTITLE1=Family Bible
TTITLE2=Life's Railway to Heaven
TTITLE3=Will the Circle Be Unbroken?
TTITLE4=Lord Lead Me On
TTITLE5=Swing Low Sweet Chariot
TTITLE6=Angel Band
TTITLE7=What would You Give in Exchange For Your Soul?
TTITLE8=I'm Using My Bible For a Roadmap
TTITLE9=Sweet Hour of Prayer
TTITLE10=The Hand Reached Down
TTITLE11=Old Brush Arbors
TTITLE12=Somebody Touched Me
TTITLE13=Old Camp Meeting Time
TTITLE14=Let's All Go Down to The River
TTITLE15=Touch of God's Hand
EXTD=Bluegrass Gospel Greats
EXTT0=
EXTT1=
EXTT2=
EXTT3=
EXTT4=
EXTT5=
EXTT6=
EXTT7=
EXTT8=
EXTT9=
EXTT10=
EXTT11=
EXTT12=
EXTT13=
EXTT14=
EXTT15=
PLAYORDER=
